<?plantuml 1.2026.2beta3?>
<svg xmlns="http://www.w3.org/2000/svg" xmlns:xlink="http://www.w3.org/1999/xlink" contentStyleType="text/css" data-diagram-type="DESCRIPTION" height="978px" preserveAspectRatio="none" style="width:1190px;height:978px;background:#FFFFFF;" version="1.1" viewBox="0 0 1190 978" width="1190px" zoomAndPan="magnify"><title>Pairwise-CLI -- Use Case Diagram</title><defs/><g><g class="title" data-source-line="1"><text fill="#000000" font-family="sans-serif" font-size="14" font-weight="bold" lengthAdjust="spacing" textLength="261.8779" x="457.481" y="22.9951">Pairwise-CLI -- Use Case Diagram</text></g><!--cluster Pairwise-CLI--><g class="cluster" data-qualified-name="Pairwise-CLI" data-source-line="9" id="ent0004"><rect fill="none" height="605" rx="2.5" ry="2.5" style="stroke:#181818;stroke-width:1;" width="1030.97" x="149.75" y="44.2969"/><text fill="#000000" font-family="sans-serif" font-size="14" font-weight="bold" lengthAdjust="spacing" textLength="97.1865" x="616.6417" y="59.292">Pairwise-CLI</text></g><!--cluster External--><g class="cluster" data-qualified-name="External" data-source-line="28" id="ent0019"><rect fill="none" height="103" rx="2.5" ry="2.5" style="stroke:#181818;stroke-width:1;" width="149.86" x="1034.98" y="673.2969"/><text fill="#000000" font-family="sans-serif" font-size="14" font-weight="bold" lengthAdjust="spacing" textLength="65.8984" x="1076.9608" y="688.292">External</text></g><!--entity UC_GEN--><g class="entity" data-qualified-name="Pairwise-CLI.UC_GEN" data-source-line="11" id="ent0005"><ellipse cx="520.0725" cy="412.2979" fill="#F1F1F1" rx="85.8225" ry="24.1311" style="stroke:#181818;stroke-width:0.5;"/><text fill="#000000" font-family="sans-serif" font-size="14" lengthAdjust="spacing" textLength="127.75" x="456.1975" y="411.6436">Generate Pairwise</text><text fill="#000000" font-family="sans-serif" font-size="14" lengthAdjust="spacing" textLength="70.1504" x="484.9973" y="427.9405">Test Suite</text></g><!--entity UC_VER--><g class="entity" data-qualified-name="Pairwise-CLI.UC_VER" data-source-line="12" id="ent0006"><ellipse cx="837.9358" cy="609.3002" fill="#F1F1F1" rx="71.0358" ry="24.4433" style="stroke:#181818;stroke-width:0.5;"/><text fill="#000000" font-family="sans-serif" font-size="14" lengthAdjust="spacing" textLength="103.4141" x="786.2288" y="608.1605">Verify Pairwise</text><text fill="#000000" font-family="sans-serif" font-size="14" lengthAdjust="spacing" textLength="67.0742" x="804.3987" y="624.4574">Coverage</text></g><!--entity UC_WIZ--><g class="entity" data-qualified-name="Pairwise-CLI.UC_WIZ" data-source-line="13" id="ent0007"><ellipse cx="237.5008" cy="327.2934" fill="#F1F1F1" rx="71.7508" ry="23.8766" style="stroke:#181818;stroke-width:0.5;"/><text fill="#000000" font-family="sans-serif" font-size="14" lengthAdjust="spacing" textLength="107.3379" x="183.8318" y="327.0426">Run Interactive</text><text fill="#000000" font-family="sans-serif" font-size="14" lengthAdjust="spacing" textLength="48.3027" x="213.3494" y="343.3395">Wizard</text></g><!--entity UC_DOC--><g class="entity" data-qualified-name="Pairwise-CLI.UC_DOC" data-source-line="14" id="ent0008"><ellipse cx="520.0673" cy="607.2929" fill="#F1F1F1" rx="60.0173" ry="25.876" style="stroke:#181818;stroke-width:0.5;"/><text fill="#000000" font-family="sans-serif" font-size="14" lengthAdjust="spacing" textLength="78.7773" x="480.6786" y="603.5498">Run Doctor</text><text fill="#000000" font-family="sans-serif" font-size="14" lengthAdjust="spacing" textLength="81.2383" x="479.4482" y="619.8467">Diagnostics</text></g><!--entity UC_LIC--><g class="entity" data-qualified-name="Pairwise-CLI.UC_LIC" data-source-line="15" id="ent0009"><ellipse cx="237.4964" cy="406.2962" fill="#F1F1F1" rx="66.7464" ry="15.7493" style="stroke:#181818;stroke-width:0.5;"/><text fill="#000000" font-family="sans-serif" font-size="14" lengthAdjust="spacing" textLength="98.0547" x="188.4691" y="410.9446">View Licenses</text></g><!--entity UC_VERS--><g class="entity" data-qualified-name="Pairwise-CLI.UC_VERS" data-source-line="16" id="ent0010"><ellipse cx="237.4973" cy="472.2983" fill="#F1F1F1" rx="63.9073" ry="15.1815" style="stroke:#181818;stroke-width:0.5;"/><text fill="#000000" font-family="sans-serif" font-size="14" lengthAdjust="spacing" textLength="90.5488" x="192.2229" y="476.9468">View Version</text></g><!--entity UC_PARSE--><g class="entity" data-qualified-name="Pairwise-CLI.UC_PARSE" data-source-line="18" id="ent0011"><ellipse cx="1109.905" cy="416.2989" fill="#F1F1F1" rx="54.815" ry="25.812" style="stroke:#181818;stroke-width:0.5;"/><text fill="#000000" font-family="sans-serif" font-size="14" lengthAdjust="spacing" textLength="74.0332" x="1072.8884" y="413.1333">Parse PICT</text><text fill="#000000" font-family="sans-serif" font-size="14" lengthAdjust="spacing" textLength="70.9297" x="1074.4402" y="429.4302">Model File</text></g><!--entity UC_PICT--><g class="entity" data-qualified-name="Pairwise-CLI.UC_PICT" data-source-line="19" id="ent0012"><ellipse cx="837.9388" cy="526.3001" fill="#F1F1F1" rx="62.0488" ry="23.9732" style="stroke:#181818;stroke-width:0.5;"/><text fill="#000000" font-family="sans-serif" font-size="14" lengthAdjust="spacing" textLength="91.7656" x="792.056" y="525.8951">Execute PICT</text><text fill="#000000" font-family="sans-serif" font-size="14" lengthAdjust="spacing" textLength="44.9873" x="815.4452" y="542.192">Binary</text></g><!--entity UC_LB--><g class="entity" data-qualified-name="Pairwise-CLI.UC_LB" data-source-line="20" id="ent0013"><ellipse cx="837.9434" cy="271.2969" fill="#F1F1F1" rx="73.4334" ry="23.7801" style="stroke:#181818;stroke-width:0.5;"/><text fill="#000000" font-family="sans-serif" font-size="14" lengthAdjust="spacing" textLength="110.4756" x="782.7056" y="271.2011">Compute Lower</text><text fill="#000000" font-family="sans-serif" font-size="14" lengthAdjust="spacing" textLength="44.8027" x="815.542" y="287.4979">Bound</text></g><!--entity UC_FMT--><g class="entity" data-qualified-name="Pairwise-CLI.UC_FMT" data-source-line="21" id="ent0014"><ellipse cx="837.9404" cy="187.3005" fill="#F1F1F1" rx="86.0404" ry="25.2536" style="stroke:#181818;stroke-width:0.5;"/><text fill="#000000" font-family="sans-serif" font-size="14" lengthAdjust="spacing" textLength="103.1611" x="786.3599" y="182.6574">Format Output</text><text fill="#000000" font-family="sans-serif" font-size="14" lengthAdjust="spacing" textLength="121.625" x="777.1279" y="198.9543">(Table/CSV/JSON)</text></g><!--entity UC_SAVE--><g class="entity" data-qualified-name="Pairwise-CLI.UC_SAVE" data-source-line="22" id="ent0015"><ellipse cx="837.9351" cy="103.2924" fill="#F1F1F1" rx="59.2751" ry="23.9756" style="stroke:#181818;stroke-width:0.5;"/><text fill="#000000" font-family="sans-serif" font-size="14" lengthAdjust="spacing" textLength="87.4453" x="794.2124" y="102.8838">Save Output</text><text fill="#000000" font-family="sans-serif" font-size="14" lengthAdjust="spacing" textLength="42.9502" x="816.46" y="119.1807">to File</text></g><!--entity UC_LIMITS--><g class="entity" data-qualified-name="Pairwise-CLI.UC_LIMITS" data-source-line="23" id="ent0016"><ellipse cx="837.9437" cy="442.2929" fill="#F1F1F1" rx="72.2837" ry="24.716" style="stroke:#181818;stroke-width:0.5;"/><text fill="#000000" font-family="sans-serif" font-size="14" lengthAdjust="spacing" textLength="103.9883" x="785.9495" y="440.7371">Validate Model</text><text fill="#000000" font-family="sans-serif" font-size="14" lengthAdjust="spacing" textLength="75.1885" x="800.3494" y="457.034">Size Limits</text></g><!--entity UC_BUILD--><g class="entity" data-qualified-name="Pairwise-CLI.UC_BUILD" data-source-line="24" id="ent0017"><ellipse cx="520.0653" cy="327.2985" fill="#F1F1F1" rx="63.9253" ry="25.6716" style="stroke:#181818;stroke-width:0.5;"/><text fill="#000000" font-family="sans-serif" font-size="14" lengthAdjust="spacing" textLength="81.6279" x="479.2513" y="323.2628">Build Model</text><text fill="#000000" font-family="sans-serif" font-size="14" lengthAdjust="spacing" textLength="87.5889" x="476.2709" y="339.5597">Interactively</text></g><!--entity UC_EDIT--><g class="entity" data-qualified-name="Pairwise-CLI.UC_EDIT" data-source-line="25" id="ent0018"><ellipse cx="520.0656" cy="241.2945" fill="#F1F1F1" rx="63.3156" ry="25.6677" style="stroke:#181818;stroke-width:0.5;"/><text fill="#000000" font-family="sans-serif" font-size="14" lengthAdjust="spacing" textLength="86.7275" x="476.7018" y="238.3359">Edit / Delete</text><text fill="#000000" font-family="sans-serif" font-size="14" lengthAdjust="spacing" textLength="80.7598" x="479.6857" y="254.6328">Parameters</text></g><!--entity EXT_PICT--><g class="entity" data-qualified-name="External.EXT_PICT" data-source-line="29" id="ent0020"><ellipse cx="1109.9122" cy="734.2996" fill="#F1F1F1" rx="58.9322" ry="25.6927" style="stroke:#181818;stroke-width:0.5;"/><text fill="#000000" font-family="sans-serif" font-size="14" lengthAdjust="spacing" textLength="80.3359" x="1069.7443" y="731.305">PICT Binary</text><text fill="#000000" font-family="sans-serif" font-size="14" lengthAdjust="spacing" textLength="75.1885" x="1072.318" y="747.6018">(Microsoft)</text></g><!--entity User--><g class="entity" data-qualified-name="User" data-source-line="6" id="ent0002"><ellipse cx="54.3745" cy="490.0069" fill="#F1F1F1" rx="16" ry="16" style="stroke:#181818;stroke-width:0.5;"/><path d="M54.3745,510.0069 C58.3745,510.0069 61.3745,510.0069 65.3745,506.0069 C73.3745,506.0069 81.3745,514.0069 81.3745,522.0069 L81.3745,526.0069 C81.3745,530.0069 77.3745,534.0069 73.3745,534.0069 L35.3745,534.0069 C31.3745,534.0069 27.3745,530.0069 27.3745,526.0069 L27.3745,522.0069 C27.3745,514.0069 35.3745,506.0069 43.3745,506.0069 C47.3745,510.0069 50.3745,510.0069 54.3745,510.0069" fill="#F1F1F1" style="stroke:#181818;stroke-width:0.5;"/><text fill="#000000" font-family="sans-serif" font-size="14" lengthAdjust="spacing" textLength="41.0771" x="6" y="547.502">User /</text><text fill="#000000" font-family="sans-serif" font-size="14" lengthAdjust="spacing" textLength="96.749" x="6" y="563.7989">Test Engineer</text></g><!--entity CI--><g class="entity" data-qualified-name="CI" data-source-line="7" id="ent0003"><ellipse cx="237.4988" cy="682.0069" fill="#F1F1F1" rx="16" ry="16" style="stroke:#181818;stroke-width:0.5;"/><path d="M237.4988,702.0069 C241.4988,702.0069 244.4988,702.0069 248.4988,698.0069 C256.4988,698.0069 264.4988,706.0069 264.4988,714.0069 L264.4988,718.0069 C264.4988,722.0069 260.4988,726.0069 256.4988,726.0069 L218.4988,726.0069 C214.4988,726.0069 210.4988,722.0069 210.4988,718.0069 L210.4988,714.0069 C210.4988,706.0069 218.4988,698.0069 226.4988,698.0069 C230.4988,702.0069 233.4988,702.0069 237.4988,702.0069" fill="#F1F1F1" style="stroke:#181818;stroke-width:0.5;"/><text fill="#000000" font-family="sans-serif" font-size="14" lengthAdjust="spacing" textLength="39.1768" x="209.95" y="739.502">CI/CD</text><text fill="#000000" font-family="sans-serif" font-size="14" lengthAdjust="spacing" textLength="55.0977" x="209.95" y="755.7989">Pipeline</text></g><!--link User to UC_GEN--><g class="link" data-entity-1="ent0002" data-entity-2="ent0005" data-link-type="dependency" data-source-line="33" id="lnk21"><path d="M102.91,522.4969 C154.48,523.7269 238.88,522.3769 309.25,505.2969 C372.37,489.9769 434.9026,459.3399 475.8426,437.0099" fill="none" id="User-to-UC_GEN" style="stroke:#181818;stroke-width:1;"/><polygon fill="#181818" points="481.11,434.1369,471.2935,434.9348,476.7205,436.5311,475.1242,441.958,481.11,434.1369" style="stroke:#181818;stroke-width:1;"/></g><!--link User to UC_VER--><g class="link" data-entity-1="ent0002" data-entity-2="ent0006" data-link-type="dependency" data-source-line="34" id="lnk22"><path d="M62.63,567.5169 C75.08,641.5369 102.96,779.4369 141.75,808.2969 C361.32,971.6669 706.3961,716.2838 805.3861,635.7338" fill="none" id="User-to-UC_VER" style="stroke:#181818;stroke-width:1;"/><polygon fill="#181818" points="810.04,631.9469,800.5345,634.5247,806.1617,635.1027,805.5838,640.7299,810.04,631.9469" style="stroke:#181818;stroke-width:1;"/></g><!--link User to UC_WIZ--><g class="link" data-entity-1="ent0002" data-entity-2="ent0007" data-link-type="dependency" data-source-line="35" id="lnk23"><path d="M74.39,473.0669 C88.99,441.5669 111.74,401.0169 141.75,373.2969 C154.78,361.2669 166.0782,354.2305 181.8682,347.0505" fill="none" id="User-to-UC_WIZ" style="stroke:#181818;stroke-width:1;"/><polygon fill="#181818" points="187.33,344.5669,177.4815,344.651,182.7785,346.6365,180.793,351.9335,187.33,344.5669" style="stroke:#181818;stroke-width:1;"/></g><!--link User to UC_DOC--><g class="link" data-entity-1="ent0002" data-entity-2="ent0008" data-link-type="dependency" data-source-line="36" id="lnk24"><path d="M55.86,567.3569 C59.33,627.2469 75.36,728.6269 141.75,776.2969 C263.32,863.5869 433.0676,700.9839 493.3976,636.0039" fill="none" id="User-to-UC_DOC" style="stroke:#181818;stroke-width:1;"/><polygon fill="#181818" points="497.48,631.6069,488.425,635.4809,494.078,635.2711,494.2878,640.924,497.48,631.6069" style="stroke:#181818;stroke-width:1;"/></g><!--link User to UC_LIC--><g class="link" data-entity-1="ent0002" data-entity-2="ent0009" data-link-type="dependency" data-source-line="37" id="lnk25"><path d="M98.6,473.1169 C111.57,460.8769 126.45,448.5569 141.75,439.2969 C156.8,430.1869 169.0085,424.9749 185.1985,419.7649" fill="none" id="User-to-UC_LIC" style="stroke:#181818;stroke-width:1;"/><polygon fill="#181818" points="190.91,417.9269,181.1173,416.8762,186.1504,419.4585,183.568,424.4916,190.91,417.9269" style="stroke:#181818;stroke-width:1;"/></g><!--link User to UC_VERS--><g class="link" data-entity-1="ent0002" data-entity-2="ent0010" data-link-type="dependency" data-source-line="38" id="lnk26"><path d="M102.96,507.6869 C131.05,500.2469 160.5203,492.4341 187.7603,485.2141" fill="none" id="User-to-UC_VERS" style="stroke:#181818;stroke-width:1;"/><polygon fill="#181818" points="193.56,483.6769,183.8356,482.1162,188.7269,484.9579,185.8852,489.8492,193.56,483.6769" style="stroke:#181818;stroke-width:1;"/></g><!--link CI to UC_GEN--><g class="link" data-entity-1="ent0003" data-entity-2="ent0005" data-link-type="dependency" data-source-line="41" id="lnk27"><path d="M265.29,691.5969 C299.4,664.6069 359.29,615.0769 404.25,566.2969 C443.58,523.6269 479.1644,472.8109 500.0544,441.4409" fill="none" id="CI-to-UC_GEN" style="stroke:#181818;stroke-width:1;"/><polygon fill="#181818" points="503.38,436.4469,495.0622,441.7208,500.6086,440.6086,501.7209,446.155,503.38,436.4469" style="stroke:#181818;stroke-width:1;"/></g><!--link CI to UC_VER--><g class="link" data-entity-1="ent0003" data-entity-2="ent0006" data-link-type="dependency" data-source-line="42" id="lnk28"><path d="M265.31,708.4969 C338.64,697.9669 548.58,667.0869 721.9,634.2969 C740.17,630.8469 754.1287,627.9694 772.0887,624.0394" fill="none" id="CI-to-UC_VER" style="stroke:#181818;stroke-width:1;"/><polygon fill="#181818" points="777.95,622.7569,768.303,620.7732,773.0656,623.8257,770.0131,628.5883,777.95,622.7569" style="stroke:#181818;stroke-width:1;"/></g><!--link CI to UC_DOC--><g class="link" data-entity-1="ent0003" data-entity-2="ent0008" data-link-type="dependency" data-source-line="43" id="lnk29"><path d="M265.4,702.2269 C313.55,684.2169 409.2805,648.3896 468.2605,626.3196" fill="none" id="CI-to-UC_DOC" style="stroke:#181818;stroke-width:1;"/><polygon fill="#181818" points="473.88,624.2169,464.049,623.6247,469.1971,625.9692,466.8527,631.1173,473.88,624.2169" style="stroke:#181818;stroke-width:1;"/></g><!--link UC_GEN to UC_PARSE--><g class="link" data-entity-1="ent0005" data-entity-2="ent0011" data-link-type="dependency" data-source-line="46" id="lnk30"><path d="M598.8,402.2969 C611.19,401.0569 623.88,399.9769 635.9,399.2969 C675.14,397.0869 843.36,396.6169 923.98,400.2969 C968.56,402.3369 1013.0702,406.2455 1050.0002,409.9655" fill="none" id="UC_GEN-to-UC_PARSE" style="stroke:#181818;stroke-width:1;stroke-dasharray:7,7;"/><polygon fill="#181818" points="1055.97,410.5669,1047.4162,405.685,1050.9952,410.0658,1046.6144,413.6447,1055.97,410.5669" style="stroke:#181818;stroke-width:1;"/><text fill="#000000" font-family="sans-serif" font-size="13" lengthAdjust="spacing" textLength="63.0068" x="806.44" y="394.3638">«include»</text></g><!--link UC_GEN to UC_PICT--><g class="link" data-entity-1="ent0005" data-entity-2="ent0012" data-link-type="dependency" data-source-line="47" id="lnk31"><path d="M571.53,432.0269 C591.52,439.7369 614.74,448.5669 635.9,456.2969 C688.66,475.5869 743.9612,494.7099 784.8012,508.6399" fill="none" id="UC_GEN-to-UC_PICT" style="stroke:#181818;stroke-width:1;stroke-dasharray:7,7;"/><polygon fill="#181818" points="790.48,510.5769,783.2532,503.8856,785.7477,508.9628,780.6706,511.4573,790.48,510.5769" style="stroke:#181818;stroke-width:1;"/><text fill="#000000" font-family="sans-serif" font-size="13" lengthAdjust="spacing" textLength="63.0068" x="647.4" y="452.3638">«include»</text></g><!--link UC_GEN to UC_LB--><g class="link" data-entity-1="ent0005" data-entity-2="ent0013" data-link-type="dependency" data-source-line="48" id="lnk32"><path d="M568.24,391.9769 C580.89,385.7169 594.27,378.3369 605.9,370.2969 C620.89,359.9169 620.3,351.7569 635.9,342.2969 C680.2,315.4269 730.3946,298.2971 772.0146,286.8571" fill="none" id="UC_GEN-to-UC_LB" style="stroke:#181818;stroke-width:1;stroke-dasharray:7,7;"/><polygon fill="#181818" points="777.8,285.2669,768.0617,283.7953,772.9788,286.5921,770.182,291.5092,777.8,285.2669" style="stroke:#181818;stroke-width:1;"/><text fill="#000000" font-family="sans-serif" font-size="13" lengthAdjust="spacing" textLength="63.0068" x="647.4" y="300.3638">«include»</text></g><!--link UC_GEN to UC_LIMITS--><g class="link" data-entity-1="ent0005" data-entity-2="ent0016" data-link-type="dependency" data-source-line="49" id="lnk33"><path d="M602.01,419.9869 C653.28,424.8569 712.9069,430.5195 761.7569,435.1595" fill="none" id="UC_GEN-to-UC_LIMITS" style="stroke:#181818;stroke-width:1;stroke-dasharray:7,7;"/><polygon fill="#181818" points="767.73,435.7269,759.1486,430.8938,762.7524,435.2541,758.3921,438.8579,767.73,435.7269" style="stroke:#181818;stroke-width:1;"/><text fill="#000000" font-family="sans-serif" font-size="13" lengthAdjust="spacing" textLength="63.0068" x="647.4" y="420.3638">«include»</text></g><!--link UC_GEN to UC_FMT--><g class="link" data-entity-1="ent0005" data-entity-2="ent0014" data-link-type="dependency" data-source-line="50" id="lnk34"><path d="M575.33,393.4269 C586.62,387.4669 597.6,379.8569 605.9,370.2969 C633.81,338.1369 607.5,311.0369 635.9,279.2969 C646.71,267.2169 725.3186,233.2976 781.2686,210.0676" fill="none" id="UC_GEN-to-UC_FMT" style="stroke:#181818;stroke-width:1;stroke-dasharray:7,7;"/><polygon fill="#181818" points="786.81,207.7669,776.9641,207.5237,782.1922,209.6841,780.0318,214.9122,786.81,207.7669" style="stroke:#181818;stroke-width:1;"/><text fill="#000000" font-family="sans-serif" font-size="13" lengthAdjust="spacing" textLength="63.0068" x="647.4" y="233.3638">«include»</text></g><!--reverse link UC_GEN to UC_VER--><g class="link" data-entity-1="ent0005" data-entity-2="ent0006" data-link-type="dependency" data-source-line="53" id="lnk35"><path d="M537.5225,441.6258 C566.0425,492.3058 627.53,600.4369 635.9,605.2969 C678.44,630.0569 735.11,628.7569 777.43,622.5869" fill="none" id="UC_GEN-backto-UC_VER" style="stroke:#181818;stroke-width:1;stroke-dasharray:7,7;"/><polygon fill="#181818" points="534.58,436.3969,535.5079,446.2019,537.0321,440.7543,542.4798,442.2785,534.58,436.3969" style="stroke:#181818;stroke-width:1;"/><text fill="#000000" font-family="sans-serif" font-size="13" lengthAdjust="spacing" textLength="61.1851" x="648.7987" y="586.3638">«extend»</text><text fill="#000000" font-family="sans-serif" font-size="13" lengthAdjust="spacing" textLength="84.9824" x="636.9" y="601.4966">[--verify flag]</text></g><!--reverse link UC_GEN to UC_SAVE--><g class="link" data-entity-1="ent0005" data-entity-2="ent0015" data-link-type="dependency" data-source-line="54" id="lnk36"><path d="M581.9931,391.1128 C593.0831,385.1428 598.34,380.2469 605.9,370.2969 C649.11,313.3669 591.71,268.4869 635.9,212.2969 C661.84,179.3069 687.19,196.8969 721.9,173.2969 C737.23,162.8769 736.68,154.9069 751.9,144.2969 C765.21,135.0169 780.94,126.7869 795.23,120.1769" fill="none" id="UC_GEN-backto-UC_SAVE" style="stroke:#181818;stroke-width:1;stroke-dasharray:7,7;"/><polygon fill="#181818" points="576.71,393.9569,586.5307,393.2129,581.1126,391.5868,582.7387,386.1687,576.71,393.9569" style="stroke:#181818;stroke-width:1;"/><text fill="#000000" font-family="sans-serif" font-size="13" lengthAdjust="spacing" textLength="61.1851" x="648.4847" y="154.3638">«extend»</text><text fill="#000000" font-family="sans-serif" font-size="13" lengthAdjust="spacing" textLength="69.3545" x="644.4" y="169.4966">[--out flag]</text></g><!--link UC_VER to UC_PARSE--><g class="link" data-entity-1="ent0006" data-entity-2="ent0011" data-link-type="dependency" data-source-line="57" id="lnk37"><path d="M882.8,589.9769 C896.35,583.3969 911.1,575.5869 923.98,567.2969 C985.5,527.7169 1045.6741,474.9989 1079.8641,443.5489" fill="none" id="UC_VER-to-UC_PARSE" style="stroke:#181818;stroke-width:1;stroke-dasharray:7,7;"/><polygon fill="#181818" points="1084.28,439.4869,1074.9482,442.636,1080.6001,442.8719,1080.3642,448.5238,1084.28,439.4869" style="stroke:#181818;stroke-width:1;"/><text fill="#000000" font-family="sans-serif" font-size="13" lengthAdjust="spacing" textLength="63.0068" x="954.98" y="493.3638">«include»</text></g><!--link UC_WIZ to UC_BUILD--><g class="link" data-entity-1="ent0007" data-entity-2="ent0017" data-link-type="dependency" data-source-line="60" id="lnk38"><path d="M309.66,327.2969 C354.8,327.2969 406.65,327.2969 450.11,327.2969" fill="none" id="UC_WIZ-to-UC_BUILD" style="stroke:#181818;stroke-width:1;stroke-dasharray:7,7;"/><polygon fill="#181818" points="456.11,327.2969,447.11,323.2969,451.11,327.2969,447.11,331.2969,456.11,327.2969" style="stroke:#181818;stroke-width:1;"/><text fill="#000000" font-family="sans-serif" font-size="13" lengthAdjust="spacing" textLength="63.0068" x="340.25" y="323.3638">«include»</text></g><!--link UC_WIZ to UC_GEN--><g class="link" data-entity-1="ent0007" data-entity-2="ent0005" data-link-type="dependency" data-source-line="61" id="lnk39"><path d="M291.6,343.3869 C339.74,357.9669 404.8278,377.6869 454.6278,392.7769" fill="none" id="UC_WIZ-to-UC_GEN" style="stroke:#181818;stroke-width:1;stroke-dasharray:7,7;"/><polygon fill="#181818" points="460.37,394.5169,452.9167,388.0788,455.5849,393.0669,450.5968,395.7351,460.37,394.5169" style="stroke:#181818;stroke-width:1;"/><text fill="#000000" font-family="sans-serif" font-size="13" lengthAdjust="spacing" textLength="63.0068" x="340.25" y="356.3638">«include»</text></g><!--reverse link UC_WIZ to UC_EDIT--><g class="link" data-entity-1="ent0007" data-entity-2="ent0018" data-link-type="dependency" data-source-line="62" id="lnk40"><path d="M297.0066,309.3685 C347.9666,293.7485 418.83,272.0269 468.89,256.6769" fill="none" id="UC_WIZ-backto-UC_EDIT" style="stroke:#181818;stroke-width:1;stroke-dasharray:7,7;"/><polygon fill="#181818" points="291.27,311.1269,301.0471,312.3137,296.0505,309.6616,298.7026,304.665,291.27,311.1269" style="stroke:#181818;stroke-width:1;"/><text fill="#000000" font-family="sans-serif" font-size="13" lengthAdjust="spacing" textLength="61.1851" x="341.25" y="273.3638">«extend»</text></g><!--reverse link UC_WIZ to UC_SAVE--><g class="link" data-entity-1="ent0007" data-entity-2="ent0015" data-link-type="dependency" data-source-line="63" id="lnk41"><path d="M271.2257,301.3227 C291.0857,285.8727 313.87,268.8669 339.25,252.2969 C457.65,174.9969 498.24,169.6269 635.9,137.2969 C684.49,125.8869 740.54,116.7369 781.09,110.8069" fill="none" id="UC_WIZ-backto-UC_SAVE" style="stroke:#181818;stroke-width:1;stroke-dasharray:7,7;"/><polygon fill="#181818" points="266.49,305.0069,276.0497,302.6378,270.4364,301.9368,271.1375,296.3235,266.49,305.0069" style="stroke:#181818;stroke-width:1;"/><text fill="#000000" font-family="sans-serif" font-size="13" lengthAdjust="spacing" textLength="61.1851" x="489.57" y="141.3638">«extend»</text></g><!--link UC_DOC to UC_PICT--><g class="link" data-entity-1="ent0008" data-entity-2="ent0012" data-link-type="dependency" data-source-line="66" id="lnk42"><path d="M564.43,589.5869 C585.71,581.3769 611.87,571.9769 635.9,565.2969 C683.68,552.0169 733.1603,542.6055 773.6903,535.9055" fill="none" id="UC_DOC-to-UC_PICT" style="stroke:#181818;stroke-width:1;stroke-dasharray:7,7;"/><polygon fill="#181818" points="779.61,534.9269,770.0781,532.4483,774.6769,535.7424,771.3829,540.3412,779.61,534.9269" style="stroke:#181818;stroke-width:1;"/><text fill="#000000" font-family="sans-serif" font-size="13" lengthAdjust="spacing" textLength="63.0068" x="647.4" y="542.3638">«include»</text></g><!--link UC_PICT to EXT_PICT--><g class="link" data-entity-1="ent0012" data-entity-2="ent0020" data-link-type="dependency" data-source-line="69" id="lnk43"><path d="M881.33,543.8369 C895.38,550.3969 910.78,558.4269 923.98,567.2969 C988.6,610.7469 1049.6352,671.3091 1082.6452,706.0191" fill="none" id="UC_PICT-to-EXT_PICT" style="stroke:#181818;stroke-width:1;"/><polygon fill="#181818" points="1086.78,710.3669,1083.4763,701.0887,1083.3343,706.7437,1077.6792,706.6018,1086.78,710.3669" style="stroke:#181818;stroke-width:1;"/><text fill="#000000" font-family="sans-serif" font-size="13" lengthAdjust="spacing" textLength="49.7974" x="961.98" y="587.3638">invokes</text></g><?plantuml-src VLHTRzem57tFhx1usVOGU9ygf9AaLIPeKKFfj6MQlEJ2hXfiP3jGEks_xpfVE67YfTJnEVUUUtniWwO0jkIeZgZ13-Onyttsh845dFw4oBUAxpolW8rXHZA5sz-6vQWWCoY5frzHx3b16C-CL8avKJb-12rtu7dLDpQYSefDKh42RLWajYW0r8XnRHkf5XN4ao1CnHBtK12YsWzYpxEjkDXItP6hSyJ-U1vZfORCAXtTWm35pNcOfbzIegcBFGS_xwC7bxC6XPkJmmZaWOfiE_mwUdBnJwLWiJ04eUaFX7_1Twxo5lqIVnkYGsc7IuKrKaXjCDCjEdmCUbeGZcoE6GWD7MOUNs98j2Rh7Ob9puWbL_IpZ8DLAXOoXuBTOT5DjBnzIY8N7hr1LfgMC4F1rQa3qpSN6yZTtcBdyWWqr4oMeXj-FdEHTrBjk66FfI52AZwk-Ay29a6oddn97Xy-jQIxHQz-mW_GSIXjhl3aTjtJlUO5vlQygnbJaU0x2SCT6iUzHRnANDAin29l6Sv95jt8i-Tu7lRyoT6m2GkX04CdlhHXf_zKroKAuvNtjvVJw8q0WXSse-x9a9siTfWiMM2cf9ORKxiHVLtLVbEf3yqbL0nRZL9e-kXL7tr_seRPNTkmkciRHtTj0-UkRRW6_AJfNTt5Y-P1xBO-hspZyygsgQjqLn95LfGvr1DKR3OUJxiuii_ivgR1JAT3X3Nj6c0-kxvTXU0gX58us1_e1pfFaRloRyRZPlAAMGEcqrHyz_r3_Qfi2hxzCS3R45yIP6aQTDstUPO6hjbULrohgVM3DAHI4bfgbUzBDno4bVlV_MO6c_VU38FzYnaRQVLJE9H6QRboqZMplKuiXprL196T6dP5iRbhRm_nKHpaA-X_?></g></svg>